<?xml version="1.0" standalone="no"?>
<!DOCTYPE svg PUBLIC "-//W3C//DTD SVG 20010904//EN"
 "http://www.w3.org/TR/2001/REC-SVG-20010904/DTD/svg10.dtd">
<svg version="1.0" xmlns="http://www.w3.org/2000/svg"
 width="2971.000000pt" height="2971.000000pt" viewBox="0 0 2971.000000 2971.000000"
 preserveAspectRatio="xMidYMid meet">
<metadata>
Created by potrace 1.11, written by Peter Selinger 2001-2013
</metadata>
<g transform="translate(0.000000,2971.000000) scale(0.100000,-0.100000)"
fill="#000000" stroke="none">
<path d="M14322 29569 c-3316 -116 -6488 -1334 -9037 -3468 -736 -617 -1448
-1343 -2052 -2094 -2092 -2601 -3233 -5830 -3233 -9152 0 -2846 827 -5603
2402 -8010 772 -1181 1779 -2311 2883 -3236 2325 -1947 5175 -3136 8185 -3414
567 -52 1010 -69 1580 -62 542 8 807 22 1312 73 2242 222 4413 959 6334 2150
1662 1030 3116 2384 4251 3959 1088 1511 1870 3186 2323 4975 226 893 357
1761 420 2770 18 276 24 1029 11 1330 -65 1562 -350 3017 -873 4455 -589 1617
-1490 3162 -2618 4485 -443 519 -1000 1086 -1500 1526 -2873 2528 -6565 3848
-10388 3713z m1153 -6779 c1071 -91 1999 -342 2921 -790 1701 -826 3055 -2227
3821 -3950 549 -1234 770 -2616 637 -3975 -216 -2225 -1371 -4257 -3184 -5602
-2025 -1502 -4643 -1968 -7080 -1258 -2904 846 -5100 3276 -5629 6230 -95 534
-127 940 -118 1540 6 401 21 619 67 950 146 1055 501 2063 1048 2975 784 1307
1931 2369 3297 3052 976 488 2032 770 3145 838 186 11 905 5 1075 -10z"/>
<path d="M14735 20233 c-110 -39 -208 -121 -254 -211 -45 -88 -51 -140 -51
-429 0 -150 -2 -273 -5 -273 -32 0 -345 -46 -447 -66 -1311 -254 -2191 -943
-2444 -1914 -64 -246 -91 -600 -65 -851 69 -659 421 -1193 1071 -1626 494
-329 1150 -589 2140 -848 536 -140 787 -227 1029 -356 316 -169 495 -375 547
-629 76 -375 -163 -753 -611 -970 -87 -42 -231 -94 -317 -114 l-28 -6 0 729 0
729 -82 32 c-105 40 -333 108 -586 174 l-197 52 -3 -823 -2 -824 -98 50 c-306
159 -535 431 -691 826 -75 188 -141 276 -246 329 -68 33 -125 45 -217 46 -103
0 -1531 -166 -1638 -191 -334 -77 -408 -282 -252 -699 300 -802 847 -1357
1647 -1673 324 -128 707 -228 1080 -281 100 -15 373 -46 403 -46 9 0 12 -60
12 -268 0 -291 7 -341 57 -434 37 -67 121 -143 200 -181 64 -30 75 -32 178
-32 103 0 114 2 178 32 79 38 163 114 200 181 50 93 57 143 57 434 l0 267 33
5 c17 3 79 10 137 16 587 60 1202 245 1652 496 520 289 902 677 1133 1149 178
362 251 676 262 1117 9 355 -23 605 -113 878 -160 487 -472 868 -969 1182
-152 95 -445 240 -660 325 -320 127 -610 217 -1230 383 -625 167 -837 231
-1061 320 -438 174 -662 369 -731 633 -21 83 -21 234 1 317 53 197 226 394
441 503 42 21 217 87 231 87 2 0 4 -241 4 -536 l0 -535 83 -38 c123 -57 315
-125 546 -192 113 -32 214 -62 224 -65 16 -5 17 30 17 636 l0 642 58 -32 c163
-92 310 -225 460 -420 237 -306 322 -359 552 -347 117 6 1473 217 1560 243
110 32 184 86 223 158 17 33 22 57 21 121 -1 96 -29 179 -133 391 -122 251
-245 426 -436 623 -247 254 -507 430 -860 581 -371 160 -907 285 -1348 316
l-97 7 0 266 c0 290 -7 340 -57 433 -37 68 -121 143 -200 181 -59 27 -81 32
-163 34 -72 3 -107 -1 -145 -14z"/>
</g>
</svg>
